<svg xmlns="http://www.w3.org/2000/svg" viewBox="0 0 100 100" fill="none">
  <path d="M 30 24 Q 27 18 30 13 Q 33 8 30 3" stroke="#7C3AED" stroke-width="3" stroke-linecap="round" opacity="0.6" />
  <path d="M 35 26 Q 32 20 35 15 Q 38 10 35 5" stroke="#7C3AED" stroke-width="3" stroke-linecap="round" opacity="0.6" />
  <path d="M 44 26 L 44 32" stroke="#7C3AED" stroke-width="3" stroke-linecap="round" />
  <path d="M 44 14 C 41.5 14 41 18 44 26 C 47 18 46.5 14 44 14 Z" fill="#7C3AED" />
  <path d="M 52 26 L 52 32" stroke="#7C3AED" stroke-width="3" stroke-linecap="round" />
  <path d="M 52 14 C 52 14 54 14 54 21 L 52 26 Z" fill="#7C3AED" />
  <path d="M 60 21 L 60 32" stroke="#7C3AED" stroke-width="3" stroke-linecap="round" />
  <path d="M 58 14 V 21 H 62 V 14 M 60 14 V 21" stroke="#7C3AED" stroke-width="2.5" stroke-linecap="round" stroke-linejoin="round" />
  <path d="M 22 62 A 28 28 0 0 1 78 62 Z" fill="#7C3AED" />
  <circle cx="50" cy="31.5" r="4.5" fill="#7C3AED" />
  <text x="50" y="55" fill="white" font-size="22" font-weight="900" text-anchor="middle" font-family="sans-serif">P</text>
  <rect x="15" y="64" width="70" height="5" rx="2.5" fill="#7C3AED" />
  <path d="M 36 70 Q 46 74 53 80 Q 59 72 55 68 L 57 67 Q 63 74 59 86 L 55 88 Q 43 78 33 73 Z" fill="#7C3AED" />
</svg>